# xmcd
#
# Track frame offsets:
#	150
#	26466
#	55012
#	82208
#	119153
#	146245
#	164948
#	196558
#	215359
#	238362
#	261185
#	280035
#	306369
#	328775
#
# Disc length: 4673 seconds
#
# Revision: 3
# Processed by: cddbd v1.5.1PL2 Copyright (c) Steve Scherf et al.
# Submitted via: Rip'N'TagIt 1.3.0.1 
#
DISCID=dd123f0e
DTITLE=Various Artist - The Best Of (Private Investigations)
DYEAR=2005
DGENRE=blues
TTITLE0=Sultans Of Swing
TTITLE1=Love Over Gold
TTITLE2=Romeo and Juliet
TTITLE3=Tunnel Of Love
TTITLE4=Private Investigations
TTITLE5=Money For Nothing
TTITLE6=Brothers In Arms
TTITLE7=Walk Of Life
TTITLE8=On Every Street
TTITLE9=Going Home [Theme From The Local Hero]
TTITLE10=Why Aye Man
TTITLE11=Boom, Like That
TTITLE12=What It Is
TTITLE13=All The Roadrunning
EXTD=CDDBSort:dire_straits_mark_knopfler,best_of_private_investigations - YEAR: 2005
EXTT0=
EXTT1=
EXTT2=
EXTT3=
EXTT4=
EXTT5=
EXTT6=
EXTT7=
EXTT8=
EXTT9=
EXTT10=
EXTT11=
EXTT12=
EXTT13=
PLAYORDER=
